<svg width="96" height="37" viewBox="0 0 96 37" fill="none" xmlns="http://www.w3.org/2000/svg">
<path d="M8.13219 12.3791C8.26991 12.2054 8.46141 12.0825 8.6766 12.0295C8.89179 11.9765 9.11849 11.9965 9.32108 12.0864C9.52367 12.1762 9.69067 12.3308 9.79585 12.5259C9.90104 12.7209 9.93844 12.9454 9.90219 13.1641L8.84719 19.5001H12.6662C12.8542 19.5 13.0384 19.553 13.1976 19.6528C13.3569 19.7527 13.4848 19.8954 13.5666 20.0647C13.6485 20.2339 13.681 20.4228 13.6604 20.6096C13.6398 20.7965 13.5669 20.9737 13.4502 21.1211L5.53319 31.1211C5.39547 31.2947 5.20397 31.4177 4.98878 31.4706C4.77359 31.5236 4.54689 31.5036 4.3443 31.4138C4.14171 31.3239 3.97471 31.1693 3.86953 30.9742C3.76435 30.7792 3.72694 30.5547 3.76319 30.3361L4.81819 24.0001H0.99919C0.811294 23.9999 0.627242 23.9468 0.468127 23.8469C0.309012 23.7469 0.181272 23.6042 0.0995465 23.435C0.0178208 23.2658 -0.0145838 23.077 0.00604634 22.8903C0.0266765 22.7035 0.0995068 22.5263 0.21619 22.3791L8.13219 12.3791Z" fill="#FFBA6B"/>
<path d="M22.4679 22.1055C20.757 21.5195 19.3742 20.7812 18.3195 19.8906C17.2883 18.9766 16.7726 17.875 16.7726 16.5859C16.7726 15.0156 17.3351 13.7617 18.4601 12.8242C19.5851 11.8633 21.2492 11.3477 23.4523 11.2773C24.4133 11.2305 25.3625 11.3125 26.3 11.5234C27.2609 11.7109 28.1984 12.0273 29.1125 12.4727V16.7266C27.7531 15.5547 26.6515 14.8398 25.8078 14.582C24.9875 14.3008 24.2492 14.1719 23.5929 14.1953C22.8195 14.1953 22.1984 14.3594 21.7297 14.6875C21.2843 15.0156 21.0383 15.5195 20.9914 16.1992C20.9679 16.7852 21.2961 17.3242 21.9758 17.8164C22.6789 18.2852 23.6633 18.7656 24.9289 19.2578C26.8273 19.9609 28.1867 20.7578 29.007 21.6484C29.8508 22.5391 30.2726 23.582 30.2726 24.7773C30.2726 26.582 29.6164 28.0117 28.3039 29.0664C27.0148 30.0977 25.1984 30.6133 22.8547 30.6133C21.7062 30.6133 20.6281 30.4609 19.6203 30.1562C18.6359 29.8281 17.8976 29.4414 17.4054 28.9961C16.8898 28.5508 16.6203 28.1523 16.5968 27.8008C16.5734 27.4258 16.6437 27.1094 16.8078 26.8516C17.1593 26.3594 17.6047 26.1016 18.1437 26.0781C18.6828 26.0312 19.1867 26.2188 19.6554 26.6406C20.0773 26.9453 20.5929 27.2031 21.2023 27.4141C21.8117 27.6016 22.3625 27.6953 22.8547 27.6953C24.0031 27.6484 24.8351 27.3438 25.3508 26.7812C25.8898 26.2188 26.089 25.5273 25.9484 24.707C25.9015 24.3086 25.6437 23.8867 25.175 23.4414C24.7062 22.9961 23.8039 22.5508 22.4679 22.1055ZM32.4523 16.2695C32.4523 15.543 32.3937 15.0625 32.2765 14.8281C32.1593 14.5703 32.0187 14.3945 31.8547 14.3008C31.4797 14.1836 31.1867 14.043 30.9758 13.8789C30.7648 13.7148 30.6593 13.457 30.6593 13.1055C30.6593 12.332 31.1515 11.9453 32.1359 11.9453H35.2648C36.1554 11.9453 36.6476 12.2383 36.7414 12.8242C37.7492 11.9336 39.05 11.4883 40.6437 11.4883C43.1281 11.4883 45.0148 12.3789 46.3039 14.1602C47.5929 15.918 48.2375 18.25 48.2375 21.1562C48.2375 23.8516 47.5578 26.1016 46.1984 27.9062C44.839 29.7109 42.882 30.6133 40.3273 30.6133C38.8742 30.6133 37.6906 30.2734 36.7765 29.5938V36.3789H32.4523V16.2695ZM43.8429 21.2617C43.8429 19.1055 43.4679 17.4531 42.7179 16.3047C41.9914 15.1328 41.1125 14.5469 40.0812 14.5469C39.214 14.5469 38.4523 14.9805 37.7961 15.8477C37.1398 16.6914 36.8117 17.8516 36.8117 19.3281V22.668C36.8117 24.4961 37.1281 25.7969 37.7609 26.5703C38.4172 27.3438 39.2023 27.7305 40.1164 27.7305C41.007 27.7305 41.8508 27.1797 42.6476 26.0781C43.4445 24.9766 43.8429 23.3711 43.8429 21.2617ZM60.2258 29.1367C59.9211 29.3711 59.382 29.6758 58.6086 30.0508C57.8351 30.4258 56.7453 30.6133 55.339 30.6133C53.675 30.6133 52.3039 30.1328 51.2258 29.1719C50.1476 28.1875 49.6086 26.9336 49.6086 25.4102C49.6086 23.3477 50.5226 21.6953 52.3508 20.4531C54.2023 19.2109 56.4406 18.5898 59.0656 18.5898H60.1906V17.8516C60.1906 16.7734 59.8859 15.9297 59.2765 15.3203C58.6672 14.6875 57.9406 14.3711 57.0968 14.3711C56.3468 14.3711 55.7023 14.5703 55.1633 14.9688C54.6476 15.3672 54.3898 16.1406 54.3898 17.2891H49.8195C49.8195 15.4375 50.4875 14.0078 51.8234 13C53.1593 11.9922 54.9523 11.4883 57.2023 11.4883C59.5929 11.4883 61.4093 12.0859 62.6515 13.2812C63.9172 14.4531 64.55 16.0352 64.55 18.0273V30.3672H60.2258V29.1367ZM60.1906 21.5781C58.2922 21.5312 56.7804 21.8242 55.6554 22.457C54.5304 23.0898 53.9679 23.957 53.9679 25.0586C53.9679 25.9961 54.1906 26.6406 54.6359 26.9922C55.0812 27.3203 55.5851 27.4844 56.1476 27.4844C57.132 27.4844 58.0461 27.1211 58.8898 26.3945C59.757 25.668 60.1906 24.7891 60.1906 23.7578V21.5781ZM67.8195 16.2695C67.8195 15.5195 67.7609 15.0273 67.6437 14.793C67.55 14.5352 67.4211 14.3711 67.257 14.3008C66.882 14.207 66.5656 14.0781 66.3078 13.9141C66.0734 13.7266 65.9562 13.4453 65.9562 13.0703C65.9562 12.3203 66.4601 11.9453 67.4679 11.9453H70.5617C71.5929 11.9453 72.1086 12.3672 72.1086 13.2109V13.4922C72.2726 13.3281 72.4484 13.1758 72.6359 13.0352C73.6906 12.1211 75.0734 11.6641 76.7843 11.6641H78.5773V15.6016C76.3273 15.1094 74.5226 15.3789 73.1633 16.4102C72.7648 16.6914 72.4133 17.0898 72.1086 17.6055V30.3672H67.8195V16.2695ZM84.4836 30.3672H80.1242V7.97266C80.1242 7.24609 80.0773 6.76562 79.9836 6.53125C79.8898 6.27344 79.7492 6.10938 79.5617 6.03906C79.2336 5.94531 78.9289 5.82812 78.6476 5.6875C78.3664 5.52344 78.2258 5.21875 78.2258 4.77344C78.2258 4.02344 78.7179 3.64844 79.7023 3.64844H82.9718C83.9797 3.64844 84.4836 4.03516 84.4836 4.80859V17.7109L90.0734 11.9453H95.1008L87.05 19.8203L95.7687 30.3672H90.7062L84.4836 22.5625V30.3672Z" fill="white"/>
</svg>
